<svg width="818" height="1192" viewBox="0 0 818 1192" fill="none" xmlns="http://www.w3.org/2000/svg">
<path fill-rule="evenodd" clip-rule="evenodd" d="M17.1208 1107.38C18.7158 1077.75 20.6758 1048.14 23.0218 1018.55C27.6968 959.621 33.8178 900.645 44.0038 842.392C54.0528 784.916 68.1168 729.027 88.3788 674.258C97.7788 648.848 107.959 627.171 122.727 604.329C136.691 582.732 154.51 568.098 176.71 555.061C196.712 543.315 219.949 522.935 239.133 509.781C247.142 504.29 263.62 504.656 269.112 496.533C276.304 485.896 271.641 469.615 278.891 459.013C287.178 446.891 298.788 437.474 311.88 430.633C326.169 420.957 342.999 416.577 359.874 417.18C384.758 415.671 409.82 423.593 425.796 443.847C433.768 453.955 438.423 465.617 439.067 478.53C439.235 481.889 438.156 484.537 436.38 486.449C437.433 487.857 438.481 489.266 439.522 490.683C442.79 485.843 450.428 483.271 455.518 486.924C472.17 498.877 490.167 508.381 509.162 515.348C513.606 513.245 518.986 514.219 522.793 517.652C524.338 519.044 525.977 520.235 527.69 521.246C534.733 523.155 541.885 524.75 549.143 525.983C551.415 526.368 553.34 527.658 554.8 529.397C556.963 527.375 559.936 526.404 563.256 527.67C601.591 542.283 637.793 564.984 665.31 595.74C695.796 629.813 711.808 672.198 723.998 715.622C737.194 762.629 745.627 810.806 752.71 859.064C759.887 907.961 766.956 957.049 771.894 1006.23C774.673 1033.9 775.733 1061.83 774.475 1089.63C773.848 1103.52 772.579 1117.37 770.558 1131.13C770.087 1134.35 769.594 1138.06 768.8 1141.76C771.213 1141.29 774.087 1143.33 773.598 1146.59C770.192 1169.33 742.698 1175.96 723.736 1178.58C692.719 1182.86 661.541 1185.23 630.226 1185.42C599.453 1185.6 568.685 1183.62 537.976 1181.85C506.492 1180.04 475.009 1178.22 443.526 1176.37C317.387 1168.98 191.241 1161.66 65.1008 1154.26C53.5768 1153.59 40.4178 1152.67 30.5468 1145.99C17.0158 1136.82 16.3198 1122.26 17.1208 1107.38V1107.38Z" fill="white"/>
<path fill-rule="evenodd" clip-rule="evenodd" d="M632.044 853.025C632.482 852.205 631.466 851.468 630.792 852.059C615.479 865.497 607.462 887.078 605.781 907.026C604 928.179 606.525 950.08 607.49 971.224C608.564 994.776 609.529 1018.34 610.84 1041.88C612.171 1065.76 613.605 1089.64 614.834 1113.53L617.599 1167.26V1167.26C617.893 1172.99 617.256 1180.03 619.454 1185.38C622.86 1193.67 632.978 1192.38 635.104 1185.46L635.17 1185.23L635.364 1185.38C637.24 1179.14 635.836 1171.73 635.518 1165.27L632.621 1106.56V1106.56C630.575 1065.06 628.749 1023.56 626.551 982.068L625.803 968.238C624.776 949.619 623.988 931.048 623.355 912.436L623.149 906.23C622.548 887.542 623.025 869.899 632.044 853.025ZM260.835 508.511C252.304 507.701 245.862 510.53 238.117 513.51C234.743 514.807 231.548 516.306 228.311 517.858C224.258 519.801 221.652 523.236 219.157 526.869L217.823 528.826C207.432 544.05 200.442 561.614 192.555 578.189C183.329 597.578 174.011 616.925 164.982 636.406L160.526 646.004C158.298 650.803 156.077 655.605 153.89 660.422L150.109 668.806C146.312 677.309 142.907 686.304 148.32 695.076C153.353 703.234 162.276 709.546 169.341 715.852C175.235 721.114 181.13 726.375 187.027 731.635C174.838 743.841 166.655 759.21 161.845 775.692C155.011 772.845 146.67 772.299 139.604 771.067C129.713 769.343 128.501 784.317 137.836 784.134C144.73 783.999 152.818 784.703 159.89 783.251C158.661 788.667 157.769 794.165 157.202 799.678C154.23 828.573 160.724 857.636 167.496 885.593L168.054 887.889C175.409 918.149 182.383 948.488 188.622 978.999C194.875 1009.57 200.5 1040.28 205.493 1071.09C210.575 1102.44 214.171 1133.97 218.036 1165.5C218.621 1170.27 221.623 1174.36 226.895 1174.36C231.287 1174.36 236.307 1170.26 235.755 1165.5C231.767 1131.17 226.111 1097.02 220.492 1062.93C210.813 1004.21 198.632 946.013 184.619 888.193L182.171 878.124C175.866 852.009 170.146 825.101 173.309 798.164C175.885 776.229 185.056 752.842 203.182 739.219L203.734 738.809C207.968 735.704 209.597 729.766 205.427 725.677C202.773 723.075 200.116 720.475 197.458 717.878L181.502 702.3L178.285 699.154C175.602 696.535 172.907 693.932 170.132 691.409C168.452 689.883 163.897 686.973 163.564 684.463C163.347 682.824 165.287 679.947 166.073 678.438L169.675 671.169V671.169C171.72 667.024 173.702 662.849 175.699 658.68C179.837 650.044 184.035 641.434 188.083 632.755L212.404 580.643V580.643C219.265 565.941 225.377 550.42 234.347 536.828L236.115 534.179C237.591 531.948 238.895 529.8 239.829 527.072C240.726 524.447 241.852 521.565 243.51 519.325C247.395 514.068 254.821 511.086 261.034 509.985C261.932 509.825 261.606 508.585 260.835 508.511ZM447.888 494.824C447.348 494.824 447.266 495.595 447.764 495.745C455.26 497.999 462.423 501.636 468.267 506.886C471.063 509.398 473.878 512.249 475.604 515.631C476.265 516.925 476.63 518.292 476.898 519.709L476.984 520.184C477.429 522.744 478.067 524.17 479.368 526.22L479.591 526.568C487.018 538.037 492.223 550.776 496.982 563.531L507.346 591.342V591.342L517.703 619.157C521.04 628.119 524.379 637.082 527.717 646.044C529.561 650.992 531.457 655.919 533.352 660.847C534.172 662.982 535.054 665.101 535.804 667.262C535.907 667.557 536.235 669.336 536.481 669.768L536.397 669.915V669.915C534.308 673.429 528.737 676.365 525.579 678.918L514.705 687.709V687.709C506.952 693.978 499 700.071 491.48 706.62C486.756 710.732 489.695 718.096 494.963 719.813C503.791 722.689 512.44 726.131 521.136 729.385C524.649 730.699 528.306 731.842 531.778 733.292L533.892 734.205C534.717 734.576 534.32 734.573 534.287 736.096C534.254 737.694 533.801 739.359 533.541 740.929C530.612 758.639 527.507 776.319 524.23 793.968C512.638 856.379 498.789 918.334 482.994 979.813C475.016 1010.86 466.46 1041.75 458.307 1072.75C450.174 1103.67 439.473 1134.15 429.255 1164.43C426.372 1172.97 439.913 1176.64 442.725 1168.14C454.501 1132.53 465.274 1096.6 476.399 1060.79C496.165 997.147 511.741 932.125 525.517 866.946C532.345 834.642 538.59 802.214 544.246 769.684C545.317 763.525 546.367 757.363 547.396 751.197L548.895 742.128C549.923 735.664 550.508 728.93 545.483 723.815C540.577 718.821 532.154 717.052 525.698 714.71L525.229 714.538C521.121 713.005 516.983 711.528 512.861 710.005C518.933 705.225 524.93 700.339 530.987 695.562C535.873 691.708 540.836 687.932 545.652 683.99C549.623 680.738 552.861 676.563 553.275 671.275C553.697 665.87 551.381 660.855 549.513 655.898L549.334 655.419C547.5 650.47 545.661 645.524 543.775 640.594L532.105 610.075V610.075C524.689 590.682 517.586 571.132 509.786 551.89C506.7 544.275 503.337 536.78 499.363 529.582C497.447 526.111 495.392 522.714 493.159 519.438C490.657 515.764 488.386 513.973 484.509 511.946C478.31 508.705 473.445 503.271 467.22 499.93C461.11 496.65 454.824 494.9 447.888 494.824ZM427.764 460.225C427.527 459.818 426.899 459.999 426.891 460.462C426.729 470.1 429.019 479.949 430.428 489.479C431.843 499.043 432.297 509.138 434.344 518.6C434.386 519.041 434.471 519.475 434.592 519.902L434.69 520.226V520.226C435.554 522.877 437.801 525.124 440.558 525.826C439.691 530.63 438.874 535.442 438.187 540.28C437.007 548.596 435.93 556.924 434.871 565.254L433.603 575.252C432.406 584.674 431.242 594.1 430.091 603.527C427.164 604.751 424.177 605.761 421.118 606.636C414.073 608.652 406.857 609.472 399.587 610.185C384.781 611.637 369.862 612.31 355.005 613.135L351.822 613.314C335.118 614.271 318.323 614.441 301.661 612.727C293.399 611.877 285.202 610.451 277.145 608.43C273.051 607.403 269.072 605.869 264.986 604.865C263.631 604.532 262.42 603.764 261.062 602.944C260.459 602.182 259.613 601.605 258.511 601.382L258.212 601.33V601.33L257.917 601.287L257.815 601.241L257.823 601.273C256.987 601.16 256.193 601.161 255.444 601.263C255.146 593.913 254.823 586.563 254.418 579.215C253.331 559.479 250.33 538.891 254.336 519.327C254.47 518.669 253.575 518.437 253.342 519.053C245.481 539.764 246.364 562.411 245.968 584.209C245.581 605.526 245.815 626.858 245.921 648.18C244.394 648.83 243.032 649.711 241.953 650.947C239.798 653.417 239.178 657.711 241.953 660.095C243.183 661.152 244.544 661.886 245.988 662.395C246.065 680.918 246.196 699.443 246.382 717.967C242.859 720.688 242.53 727.149 246.515 729.834C247.178 789.822 248.268 849.812 249.172 909.791L251.066 1035.63V1035.63C251.318 1052.4 251.736 1069.16 251.886 1085.92L251.767 1085.97V1085.97L251.347 1086.17C250.642 1086.5 249.591 1087.03 249.374 1087.58C249.317 1087.73 249.302 1087.82 249.309 1087.9C248.153 1088.06 247.008 1088.61 246.017 1089.55C243.571 1091.87 244.068 1095.37 246.017 1097.74L246.538 1098.37V1098.37C247.753 1099.85 250.06 1100.42 251.944 1100.12C251.925 1110.58 251.858 1121.04 251.891 1131.51C251.901 1134.7 251.95 1137.9 252.005 1141.09L252.137 1148.76C252.224 1153.13 252.612 1158.69 257.091 1160.65C262.144 1162.87 266.675 1161.05 268.721 1155.92C269.275 1154.53 269.156 1153.24 268.954 1151.86C269.017 1149.8 269.34 1147.4 269.3 1145.49L269.133 1137.5V1137.5C269.107 1136.27 269.057 1135.04 269.022 1133.8L269.168 1133.82V1133.82C287.122 1134.69 305.202 1134.26 323.186 1134.25L331.185 1134.27C337.858 1134.27 344.546 1134.24 351.21 1133.98L353.708 1133.87C358.697 1133.64 363.944 1133.57 369.116 1133.12C368.457 1138.43 367.841 1143.74 367.292 1149.06C366.772 1154.1 371.977 1158.39 376.62 1158.39C382.134 1158.39 385.288 1154.05 385.948 1149.06C389.064 1125.5 390.339 1101.73 393.316 1078.16C395.982 1057.04 398.294 1035.88 400.644 1014.73L401.43 1007.68C410.03 930.705 418.38 853.699 426.367 776.657L430.085 740.642C433.841 704.342 437.619 668.04 440.805 631.687C442.627 610.903 444.306 590.115 445.886 569.311C447.045 554.027 447.773 538.828 448.247 523.574C450.116 521.651 451.053 518.843 450.225 515.943C449.741 514.251 449.178 512.568 448.584 510.888C448.621 509.237 448.66 507.587 448.692 505.934C448.722 504.37 447.134 503.565 445.863 503.824C443.553 498.231 441.009 492.686 438.886 487.147C435.45 478.181 432.618 468.52 427.764 460.225ZM619.659 557.126C583.74 534.616 540.984 518.418 498.161 520.162C497.187 520.202 496.913 521.686 497.924 521.911C520.766 527.011 543.859 533.223 565.484 542.264C587.172 551.332 607.794 563.542 626.161 578.215C660.049 605.287 686.389 640.5 703.733 680.193C713.892 703.445 721.013 727.993 727.231 752.55C733.811 778.539 739.234 804.808 743.743 831.235C752.649 883.436 757.834 936.212 760.593 989.079C763.4 1042.86 762.243 1096.67 764.245 1150.46C764.591 1159.78 777.911 1159.6 778.588 1150.46C783.124 1089.31 780.611 1027.18 776.416 966.073C772.644 911.139 766.057 856.32 755.45 802.27L754.526 797.586C744.61 747.579 732.65 696.361 708.678 651.074C688.212 612.411 656.616 580.288 619.659 557.126ZM120.869 796.124C120.682 795.588 119.974 795.595 119.785 796.124C115.69 807.586 115.543 820.519 114.455 832.602L114.369 833.53C113.326 844.55 112.54 855.584 111.809 866.627L111.537 870.769C108.604 915.819 104.939 960.819 99.4135 1005.63C93.9085 1050.28 86.4655 1094.61 78.4165 1138.85C77.5195 1143.78 79.7015 1148.8 84.8675 1150.22C89.4215 1151.47 95.2675 1148.66 96.2305 1143.77C101.227 1118.37 105.268 1092.94 108.873 1067.32C115.219 1022.22 119.955 976.902 123 931.452C124.528 908.625 125.469 885.807 125.843 862.931C126.016 852.317 125.741 841.678 125.175 831.075L125.039 828.629C124.415 817.792 124.479 806.459 120.869 796.124ZM508.996 1083.07C508.516 1082.81 507.922 1083.34 508.226 1083.84C515.181 1095.14 524.59 1104.89 533.684 1114.49C543.191 1124.53 552.463 1134.88 562.162 1144.72C569.17 1151.83 580.443 1140.36 573.047 1133.84C562.648 1124.66 551.779 1115.95 541.195 1106.98L536.567 1103.06C527.889 1095.72 518.953 1088.46 508.996 1083.07ZM178.655 1077.41C179.174 1076.42 177.988 1075.61 177.182 1076.27C171.572 1080.83 166.544 1086.27 161.127 1091.09C155.762 1095.86 150.197 1100.3 144.48 1104.64C138.739 1109 132.873 1113.18 126.849 1117.14C121.852 1120.42 116.702 1123.05 111.469 1125.77C109.046 1126.09 106.802 1127.27 105.006 1129.53C102.166 1133.1 101.864 1139.82 105.803 1142.92L106.51 1143.47V1143.47C111.107 1147.08 116.564 1147.52 121.089 1143.47C126.142 1138.95 130.918 1133.97 135.77 1129.18L137.228 1127.76C142.442 1122.69 147.529 1117.46 152.325 1111.99L156.667 1107.05C164.721 1097.87 173.105 1087.97 178.655 1077.41ZM204.497 547.871C205.43 547.253 204.855 545.589 203.703 545.986L201.59 546.717C192.763 549.784 183.676 553.186 175.661 557.909C167.048 562.984 159.095 569.03 151.497 575.516C135.77 588.941 122.39 605.45 111.019 622.657C88.2035 657.186 74.0935 696.73 62.7015 736.297C50.5545 778.485 41.2025 821.581 33.5665 864.799C25.8075 908.72 19.8215 953.037 15.8875 997.466C13.9495 1019.35 12.6485 1041.25 11.9945 1063.21C11.6575 1074.51 11.6685 1085.8 11.7625 1097.1C11.7865 1100.01 11.7672 1102.91 11.7342 1105.82L11.6235 1114.54C11.5645 1120.05 10.9045 1125.84 12.2145 1131.22C14.3225 1139.89 28.6525 1138.27 28.1815 1129.41C28.6135 1126.47 28.6305 1123.42 28.5185 1120.37C28.5865 1119.98 28.6605 1119.58 28.7425 1119.17C28.9775 1118 28.7775 1116.91 28.3175 1115.98C28.2435 1114.52 28.1765 1113.06 28.1525 1111.63C28.0585 1105.81 28.0645 1100.02 28.2255 1094.2C28.5645 1081.93 29.0525 1069.67 29.5455 1057.41C30.5305 1032.91 31.9005 1008.4 33.8865 983.955C40.7965 898.885 55.3875 813.33 79.8965 731.487C91.2795 693.481 106.972 656.172 129.477 623.33C139.467 608.75 150.738 595.283 163.233 582.784C175.807 570.207 189.663 557.695 204.497 547.871ZM374.085 1096.27L372.386 1108.56C371.537 1114.7 370.697 1120.84 369.899 1126.99C364.478 1126.25 358.932 1125.94 353.708 1125.48C344.563 1124.67 335.355 1124.28 326.183 1123.9C307.216 1123.12 288.154 1121.76 269.168 1121.85C268.973 1121.85 268.789 1121.87 268.605 1121.88L267.663 1097.64V1097.64L281.003 1097.62V1097.62C292.305 1097.6 303.605 1097.51 314.907 1097.41C325.086 1097.32 335.268 1097.31 345.445 1097.1L349.807 1096.99C357.525 1096.79 366.047 1097.22 374.085 1096.27ZM266.544 1061.09C267.088 1061.15 267.642 1061.21 268.231 1061.23C270.873 1061.34 273.536 1061.27 276.18 1061.29C281.81 1061.34 287.439 1061.37 293.07 1061.37C304.33 1061.37 315.589 1061.44 326.847 1061.58C338.437 1061.72 350.019 1061.92 361.61 1061.94C367.226 1061.95 372.824 1061.8 378.438 1061.64C377.53 1069.62 376.581 1077.59 375.533 1085.55C366.815 1084.37 357.438 1084.96 348.918 1084.88L347.812 1084.87C336.183 1084.67 324.544 1084.82 312.912 1084.83C300.946 1084.84 288.981 1084.88 277.014 1084.98L267.183 1085.06V1085.06L267.164 1084.57V1084.57C266.876 1076.75 266.69 1068.92 266.544 1061.09ZM382.763 1022.92C381.673 1032.34 380.65 1041.77 379.607 1051.2C378.914 1051.1 378.212 1051 377.497 1050.93C371.873 1050.34 366.261 1049.84 360.617 1049.49C349.366 1048.79 338.116 1048.42 326.847 1048.12C315.259 1047.81 303.669 1047.57 292.077 1047.41C286.445 1047.33 280.818 1047.34 275.186 1047.37C272.544 1047.39 269.875 1047.31 267.238 1047.49C266.924 1047.51 266.623 1047.54 266.325 1047.57L266.127 1033.42C266.093 1031.06 266.057 1028.7 266.019 1026.34C274.723 1026.88 283.572 1026.67 292.27 1026.67L294.275 1026.68C305.204 1026.73 316.137 1026.58 327.064 1026.35C338.337 1026.12 349.587 1025.75 360.84 1025.03C365.399 1024.73 369.925 1024.35 374.459 1023.85L376.727 1023.59C378.7 1023.35 380.732 1023.17 382.763 1022.92ZM265.121 982.968C286.084 984.632 306.935 985.327 327.954 985.534L331.108 985.561C349.682 985.702 368.409 986.468 387.027 985.976C385.914 995.627 384.804 1005.28 383.685 1014.93C381.019 1014.8 378.34 1014.8 375.734 1014.71C370.433 1014.52 365.15 1014.47 359.846 1014.46C348.919 1014.43 337.992 1014.53 327.064 1014.51C315.802 1014.48 304.542 1014.29 293.282 1014.08C284.153 1013.91 274.927 1013.22 265.773 1013.25L265.121 982.968V982.968ZM264.234 941.794C266.663 942.601 269.531 942.653 272.675 942.797L280.79 943.201C284.551 943.385 288.313 943.559 292.077 943.696C304.618 944.155 317.159 944.584 329.702 944.983C342.555 945.391 355.47 945.628 368.325 945.223C374.622 945.024 380.866 944.694 387.144 944.169C388.696 944.039 390.278 943.954 391.863 943.842C390.402 956.629 388.935 969.414 387.463 982.199C368.934 979.925 350.262 978.509 331.756 976.157L315.022 974.02C298.297 971.886 281.585 969.792 264.799 968.026L264.234 941.794V941.794ZM263.341 900.165C266.905 901.045 270.967 901.001 274.39 901.217L275.024 901.261C281.509 901.753 288.011 901.999 294.511 902.159C307.251 902.473 319.999 902.63 332.743 902.708L340.406 902.756C350.622 902.816 360.832 902.841 371.052 902.603C377.607 902.451 384.147 902.13 390.697 901.802C392.659 901.703 394.665 901.638 396.677 901.537C395.308 913.643 393.925 925.746 392.545 937.85C390.393 937.508 388.231 937.248 386.17 936.9C380.891 936.008 375.622 935.296 370.305 934.659C358.789 933.279 347.213 932.286 335.643 931.448C323.765 930.587 311.877 929.859 299.997 929.026L291.583 928.433C288.778 928.238 285.974 928.05 283.168 927.878C278.376 927.584 272.806 927.916 268.053 926.873C266.766 926.337 265.337 926.214 263.906 926.52L263.341 900.165V900.165ZM262.262 851.438C263.495 853.004 265.337 853.825 267.533 854.109C278.972 855.593 290.705 855.831 302.241 856.531L304.275 856.659C316.186 857.444 328.104 858.06 340.024 858.693C352.269 859.343 364.512 859.873 376.767 860.3C381.969 860.481 387.198 860.502 392.409 860.436L394.641 860.402C396.781 860.366 399.022 860.371 401.268 860.298C400.025 871.618 398.77 882.937 397.497 894.253C395.207 894.004 392.918 893.814 390.697 893.579C384.151 892.887 377.613 892.203 371.052 891.686C358.62 890.706 346.179 890.117 333.724 889.501C320.981 888.87 308.231 888.45 295.486 887.855C289.307 887.566 283.13 887.207 276.969 886.639C272.651 886.242 267.522 884.772 263.017 885.312C262.771 874.02 262.515 862.729 262.262 851.438ZM261.257 807.788C261.452 808.09 261.68 808.382 261.957 808.654C266.993 813.63 273.2 813.246 279.873 813.768L280.283 813.801C286.824 814.351 293.368 814.874 299.916 815.346C313.005 816.291 326.12 816.952 339.228 817.541C352.643 818.144 366.144 818.559 379.572 818.285C388.171 818.109 397.177 818.14 405.948 817.302C404.601 829.769 403.246 842.235 401.881 854.7C399.415 854.235 396.933 853.879 394.582 853.509C388.657 852.577 382.726 851.64 376.767 850.954C364.859 849.583 352.948 848.301 341.017 847.144C330.813 846.155 320.613 845.15 310.403 844.246L304.275 843.717C292.092 842.692 279.755 841.002 267.533 840.752C265.519 840.711 263.241 841.807 262.087 843.537C261.817 831.62 261.537 819.704 261.257 807.788ZM260.411 772.451C263.522 772.829 266.874 772.614 269.745 772.708C277.004 772.945 284.264 773.165 291.524 773.379L335.085 774.665V774.665C349.916 775.102 364.799 775.43 379.636 775.22C386.162 775.128 392.718 775.117 399.242 774.763L401.416 774.631C404.101 774.452 407.396 774.427 410.614 774.1L406.815 809.287V809.287C398.086 808.026 389.091 807.554 380.437 806.815L378.588 806.652C365.824 805.489 352.999 804.72 340.212 803.854C327.095 802.966 313.997 801.888 300.898 800.785C294.351 800.235 287.805 799.686 281.263 799.084L280.455 799.004C274.275 798.359 268.464 796.986 262.991 800.63C262.19 801.162 261.563 801.874 261.134 802.671C260.895 792.598 260.661 782.524 260.411 772.451ZM259.396 731.386C285.925 732.454 312.458 733.264 339.007 733.62C353.951 733.82 368.876 733.679 383.818 733.367C390.297 733.231 396.83 732.921 403.304 732.425L405.729 732.23C408.807 731.971 412.041 731.783 415.261 731.473C413.93 743.571 412.61 755.671 411.3 767.773C408.132 767.184 404.822 766.913 402.046 766.558L401.416 766.474C394.519 765.525 387.557 764.972 380.626 764.362C367.13 763.173 353.567 762.407 340.035 761.756C326.178 761.089 312.314 760.524 298.455 759.908L284.594 759.288C282.285 759.185 279.975 759.085 277.665 758.987C274.364 758.848 271.064 758.715 267.764 758.578C266.136 758.511 264.444 758.29 262.814 758.374L262.35 758.312C262.136 758.284 261.947 758.263 261.774 758.244C261.33 757.907 260.853 757.627 260.347 757.414L260.041 757.295L259.396 731.386ZM419.611 692.47C418.379 703.361 417.161 714.255 415.959 725.15C412.175 724.718 408.346 724.479 404.733 724.154C397.448 723.501 390.129 722.929 382.822 722.593L368.218 721.915C358.483 721.465 348.749 721.029 339.007 720.674C312.345 719.701 285.684 718.586 259.038 717.225C258.85 709.836 258.656 702.447 258.458 695.058C259.737 696.428 261.585 697.329 264.013 697.323C291.987 697.248 319.983 697.41 347.954 696.95C361.955 696.719 375.94 696.38 389.925 695.662C396.768 695.311 403.649 694.595 410.44 693.654C413.336 693.253 416.505 692.967 419.611 692.47ZM424.088 653.661C422.773 664.817 421.483 675.977 420.214 687.139C416.74 686.519 413.151 686.189 409.91 685.748C402.946 684.801 395.939 684.047 388.925 683.651C375.277 682.879 361.621 682.49 347.954 682.2C319.985 681.606 291.988 681.61 264.013 681.389C261.385 681.368 259.434 682.408 258.153 683.96C257.959 676.993 257.754 670.026 257.543 663.058C260.245 662.773 262.924 662.369 265.403 662.196C273.022 661.664 280.644 661.178 288.269 660.741C304.181 659.828 320.108 659.049 336.031 658.356C351.958 657.663 367.89 656.986 383.822 656.396L390.789 656.142C401.869 655.729 413.136 655.209 424.088 653.661ZM429.098 611.644C427.729 622.943 426.381 634.244 425.036 645.547L424.627 649.045V649.045C411.302 646.455 397.259 645.696 383.822 645.125C367.887 644.447 351.98 644.098 336.031 644.147C320.098 644.195 304.189 644.572 288.269 645.23C280.314 645.558 272.36 645.938 264.41 646.37C262.224 646.488 259.661 646.425 257.023 646.463C256.966 644.687 256.917 642.911 256.856 641.136C256.614 633.942 256.377 626.748 256.13 619.555C261.507 622.317 268.498 623.431 273.902 624.608L274.519 624.744C283.442 626.748 292.553 628.047 301.661 628.841C319.547 630.401 337.619 629.818 355.488 628.307L358.618 628.039C374.309 626.679 390.577 624.954 405.789 621.071C413.035 619.222 420.526 616.634 427.019 612.883C427.694 612.493 428.391 612.08 429.098 611.644ZM278.01 477.368C277.855 476.757 276.94 476.618 276.639 477.189C274.526 481.203 273.74 486.021 272.273 490.322C270.694 494.946 269.221 499.604 267.479 504.172C263.84 513.716 259.547 522.887 254.429 531.728C249.36 540.482 263.553 546.731 267.283 537.147C271.134 527.257 274.299 517.031 276.214 506.58C277.149 501.481 277.982 496.312 278.252 491.131C278.485 486.681 279.111 481.709 278.01 477.368Z" fill="black"/>
<path fill-rule="evenodd" clip-rule="evenodd" d="M174.419 283.192C174.817 260.79 175.257 237.94 178.587 215.756C181.843 194.068 190.8 174.464 206.192 158.715C238.885 125.262 286.275 117.091 330.387 109.603L405.806 96.8001C428.815 92.8951 453.362 86.6531 476.609 92.1911C488.064 94.9201 497.792 101.26 506.683 108.761C515.253 115.991 524.467 123.755 530.274 133.482C536.091 143.223 538.092 154.61 539.983 165.627C542.116 178.048 543.773 190.566 544.95 203.114C547.309 228.254 547.631 253.583 545.92 278.775C545.091 290.994 543.772 303.178 542.088 315.308C541.253 321.323 540.309 327.323 539.243 333.302C538.929 335.065 538.69 337.017 538.368 338.989C540.747 345.755 542.099 352.762 541.99 359.739C541.669 380.291 524.322 393.23 506.834 400.177C496.694 404.205 486.093 406.942 476.13 411.442C465.649 416.175 458.515 423.848 451.349 432.601C437.682 449.295 422.259 464.299 404.648 476.817C367.31 503.358 320.018 515.911 274.714 506.383C263.844 504.097 252.878 500.547 243.107 495.198C232.791 489.551 225.034 481.368 218.52 471.693C206.425 453.732 197.751 433.507 191.189 412.926C184.496 391.932 179.745 370.9 177.154 349.009C174.572 327.189 174.028 305.147 174.419 283.192V283.192Z" fill="white"/>
<path fill-rule="evenodd" clip-rule="evenodd" d="M415.089 18.7638C383.879 14.4708 340.802 28.4238 325.259 56.5578C251.053 39.0638 157.46 38.4908 96.299 96.7278C32.48 165.81 112.64 256.895 165.793 277.431C161.923 296.238 167.957 416.723 210.652 470.466C244.536 516.002 323.443 537.017 359.956 482.628L360.241 482.179C364.153 475.898 360.784 476.099 356.768 480.772C321.014 512.214 272.401 512.751 234.94 479.569C164.732 418.919 171.971 270.209 205.379 184.178C300.509 173.73 402.363 202.563 468.068 274.172L463.625 300.92C462.868 305.477 462.008 310.03 461.352 314.603C460.932 317.533 460.885 320.447 462.915 322.819C469.618 330.649 480.915 318.883 490.21 314.203C492.954 313.817 495.703 313.668 498.399 313.858C543.057 319.61 534.258 406.24 485.176 391.055C481.052 388.486 477.509 389.27 475.909 392.998C464.21 403.714 456.496 422.826 437.059 441.234C430.201 448.139 423.96 453.916 416.246 459.455C411.715 464.037 398.043 468.709 402.377 476.55C410.573 494.392 458.904 438.347 467.449 422.848C494.222 433.42 523.892 429.829 551.637 427.245C698.007 419.635 678.467 265.345 558.491 167.934C535.907 151.308 510.99 137.745 485.089 127.308C481.553 125.883 483.098 120.077 486.684 121.522C503.822 128.429 520.529 136.65 536.455 146.165L536.479 140.476C536.502 130.895 536.352 120.92 534.688 112.166C533.856 106.1 532.457 99.6208 530.303 94.7468C527.64 79.8038 485.925 28.5118 415.089 18.7638ZM500.352 333.746C498.092 331.599 493.873 334.159 491.861 334.095C486.716 334.799 481.828 336.972 478.016 339.654C475.499 341.064 473.735 342.388 472.261 343.606L472.221 343.595C472.232 343.595 472.246 343.606 472.258 343.609L472.12 343.703C469.973 345.228 462.116 353.817 467.08 351.507C467.45 351.026 467.829 350.564 468.211 350.111C468.252 350.173 468.309 350.234 468.377 350.293L468.099 350.707C463.88 357.054 471.164 350.367 472.284 348.591C472.337 348.634 472.397 348.663 472.456 348.694L470.997 350.471C470.793 350.723 470.632 350.924 470.499 351.094L470.192 351.392C465.314 356.186 465.161 360.501 470.828 353.412C470.605 353.746 470.426 354.1 470.401 354.414L470.066 354.843C465.616 360.576 469.235 358.54 471.446 356.091L471.631 355.881L471.593 355.938C469.536 359.107 473.618 356.883 474.339 355.188L474.369 355.111C475.155 354.47 475.639 353.751 475.805 353.569L475.835 353.538C479.661 349.618 485.207 346.301 489.918 344.794C490.601 344.664 491.292 344.56 491.99 344.486C494.823 343.854 497.687 343.421 500.581 343.187C500.935 343.145 501.294 342.885 501.562 342.549C505.939 342.402 504.588 340.608 502.772 340.275L502.74 340.27L503.1 340.239C505.909 339.965 507.827 338.957 504.987 338.339L504.627 338.267C504.671 338.198 504.71 338.129 504.748 338.06C507.18 337.793 505.593 335.429 504.243 336.001C504.811 334.144 502.215 335.071 501.891 334.795C501.644 334.521 501.337 334.279 501.16 334.266C500.378 333.714 500.757 333.764 500.352 333.746ZM485.472 303.681L486.042 304.014C486.503 304.283 486.977 304.462 487.453 304.567C486.781 304.853 486.117 305.162 485.46 305.492C485.471 305.088 485.478 304.686 485.478 304.283L485.472 303.681Z" fill="black"/>
<path fill-rule="evenodd" clip-rule="evenodd" d="M252.265 398.81C251.571 398.622 250.96 399.554 251.535 400.064C253.889 402.153 255.384 406.045 257.102 408.698C258.736 411.222 260.311 413.72 261.748 416.362C263.359 419.323 264.915 422.273 266.169 425.406L266.417 426.038V426.038C266.041 426.932 265.748 427.814 265.531 428.392L265.469 428.556C263.327 434.026 267.823 440.105 272.894 441.634C281.568 444.249 289.01 437.126 289.217 428.655C289.38 421.991 284.863 416.053 280.273 411.648C276.258 407.795 271.762 404.515 266.733 402.112C264.514 401.053 262.209 400.167 259.8 399.653C257.336 399.128 254.678 399.462 252.265 398.81ZM268.613 422.96C267.977 423.26 267.434 423.993 266.977 424.849C267.205 424.123 267.676 423.401 268.613 422.96ZM263.186 330.367C255.634 334.957 244.128 345.66 252.252 357.04C261.814 367.073 275.582 355.569 282.366 350.366C288.657 346.334 295.725 356.705 289.888 361.413C240.864 397.708 220.969 331.567 259.366 324.97C263.594 324.243 265.164 328.947 263.186 330.367ZM325.259 286.292L323.925 286.18C318.138 285.67 312.278 284.893 306.571 286.202C298.904 287.962 299.466 299.116 306.571 301.167C312.833 302.974 319.772 302.192 326.236 302.254C327.253 302.264 328.268 302.29 329.284 302.307C329.484 304.724 330.277 306.808 331.491 308.89C332.361 310.384 333.471 311.803 334.563 313.13C337.159 316.284 343.282 316.213 345.902 313.13C347.84 310.848 349.383 308.223 349.408 305.134C349.414 304.343 349.318 303.503 349.129 302.677L352.657 302.739C361.292 302.871 369.993 302.812 378.472 301.44C381.488 302.064 383.956 296.622 379.793 294.993C368.476 290.567 355.833 289.264 343.824 287.935C337.653 287.251 331.448 286.78 325.259 286.292ZM228.847 281.719L228.54 281.688C221.051 280.921 212.796 279.593 205.292 280.357C194.088 281.496 194.107 296.642 205.292 297.775C209.398 298.191 213.724 297.989 218.038 297.591C215.833 302.269 218.449 307.856 223.762 308.57C228.699 309.233 233.816 304.435 232.196 299.289L232.121 299.062C231.805 298.169 231.521 297.171 231.184 296.186L232.97 296.035C238.311 295.563 245.724 294.599 247.69 290.382C248.283 289.111 248.146 287.931 247.233 286.845C243.489 282.389 234.26 282.242 228.847 281.719V281.719ZM308.483 247.041C303.063 245.072 297.43 249.68 296.727 254.873C295.918 260.857 300.234 264.797 305.705 265.511L305.979 265.545C318.055 266.875 330.04 269.307 342.132 270.682C347.624 271.305 353.157 271.716 358.686 271.863L362.637 271.952C367.478 272.074 372.671 272.185 377.141 270.518L377.124 270.488V270.488C378.311 270.144 378.857 268.432 377.536 267.496C372.777 264.131 366.362 262.859 360.822 261.26C355.252 259.651 349.641 258.168 344.015 256.775C332.201 253.853 319.929 251.199 308.483 247.041ZM258.497 248.439C257.061 240.868 246.336 240.056 242.397 245.565C239.851 246.439 236.118 247.351 233.805 248.037C229.775 249.232 225.742 250.42 221.7 251.571C213.33 253.955 205.162 256.977 196.933 259.794C196.085 260.085 196.318 261.161 197.133 261.268C208.618 262.763 219.911 263.459 231.466 262.979L233.835 262.873C244.017 262.476 261.302 263.233 258.497 248.439Z" fill="black"/>
<path fill-rule="evenodd" clip-rule="evenodd" d="M178.866 339.318C185.599 348.363 198.081 351.244 209.594 350.249C234.425 347.859 242.24 319.658 243.054 297.739C226.403 302.423 244.462 269.249 187.543 265.601C167.478 263.929 173.01 276.047 164.145 284.901C164.327 303.483 167.42 323.674 178.866 339.318M297.137 317.966C311.797 386.619 392.075 370.289 400.508 308.403C392.721 302.907 394.772 289.336 385.098 284.419C369.766 274.623 350.6 275.042 333.189 275.272C310.934 276.801 304.592 286.02 293.16 296.078C293.71 302.796 295.296 310.758 297.137 317.966M147.065 254.231C147.888 254.094 148.712 253.965 149.536 253.844C150.179 253.479 150.934 253.198 151.812 253.029C153.817 252.52 155.808 252.177 157.796 251.992C186.328 245.571 252.335 254.688 255.059 279.036C264.145 282.069 272.007 279.353 282.538 279.623C290.554 246.118 429.137 250.847 435.802 271.047C435.827 271.04 435.852 271.034 435.878 271.026C442.282 269.044 451.723 269.522 459.053 269.208C474.704 268.88 490.373 270.275 505.686 273.576C534.361 278.133 573.496 283.468 553.553 319.276C553.549 319.282 553.546 319.289 553.541 319.295L553.538 319.292C550.101 322.815 544.268 319.978 544.051 315.209C550.756 298.245 535.612 296.208 523.96 291.333C494.967 280.917 465.449 279.473 435.463 282.695C433.207 285.351 429.784 287.667 426.166 288.879C406.117 292.207 416.683 307.079 404.01 309.242C406.338 361.084 343.397 389.382 306.928 355.303C292.367 341.067 288.896 319.978 285.52 300.969C283.735 300.568 282.6 299.592 281.937 298.3C277.644 294.014 274.947 290.056 266.458 288.879C257.969 287.703 251.434 290.064 250.55 290.787C250.327 291.236 250.088 291.686 249.81 292.136C249.422 292.807 248.894 293.342 248.294 293.763C256.677 345.387 216.6 378.035 176.141 351.26C158.561 334.723 154.846 309.405 154.112 286.807C151.729 285.369 150.22 282.582 151.045 279.078C152.182 274.248 149.516 270.066 145.27 267.966C139.753 265.239 140.729 255.28 147.065 254.231" fill="black"/>
</svg>
